<?xml version="1.0" standalone="no"?><!DOCTYPE svg PUBLIC "-//W3C//DTD SVG 1.1//EN" "http://www.w3.org/Graphics/SVG/1.1/DTD/svg11.dtd"><svg xmlns:xlink="http://www.w3.org/1999/xlink" version="1.1" class="highcharts-root" style="font-family:'lucida grande', 'lucida sans unicode', arial, helvetica, sans-serif;font-size:12px;overflow:visible;" xmlns="http://www.w3.org/2000/svg" width="240" viewBox="0 0 240 40" height="40"><desc>Created with Highcharts 5.0.0</desc><defs><clipPath id="highcharts-160"><rect x="0" y="0" width="240" height="36" fill="none"></rect></clipPath></defs><rect fill="#ffffff" class="highcharts-background" x="0" y="0" width="240" height="40" rx="0" ry="0"></rect><rect fill="none" class="highcharts-plot-background" x="0" y="2" width="240" height="36"></rect><g class="highcharts-plot-lines-0"><path fill="none" stroke="rgb(255, 84, 84)" stroke-opacity=" 0.5" stroke-width="1" stroke-dasharray="4,3" d="M 49.5 2 L 49.5 38"></path><path fill="none" stroke="rgb(255, 84, 84)" stroke-opacity=" 0.5" stroke-width="1" stroke-dasharray="4,3" d="M 96.5 2 L 96.5 38"></path><path fill="none" stroke="rgb(255, 84, 84)" stroke-opacity=" 0.5" stroke-width="1" stroke-dasharray="4,3" d="M 144.5 2 L 144.5 38"></path><path fill="none" stroke="rgb(255, 84, 84)" stroke-opacity=" 0.5" stroke-width="1" stroke-dasharray="4,3" d="M 191.5 2 L 191.5 38"></path></g><text x="54" text-anchor="undefined" class="highcharts-plot-line-label " transform="translate(0,0) rotate(90 54 12)" style="" y="12" visibility="visible">-24h</text><text x="101" text-anchor="undefined" class="highcharts-plot-line-label " transform="translate(0,0) rotate(90 101 12)" style="" y="12" visibility="visible">0h</text><text x="149" text-anchor="undefined" class="highcharts-plot-line-label " transform="translate(0,0) rotate(90 149 12)" style="" y="12" visibility="visible">24h</text><text x="196" text-anchor="undefined" class="highcharts-plot-line-label " transform="translate(0,0) rotate(90 196 12)" style="" y="12" visibility="visible">48h</text><g class="highcharts-grid highcharts-xaxis-grid "></g><g class="highcharts-grid highcharts-yaxis-grid "><path fill="none" stroke="#e6e6e6" stroke-width="1" class="highcharts-grid-line" d="M 0 38.5 L 240 38.5" opacity="1"></path></g><rect fill="none" class="highcharts-plot-border" x="0" y="2" width="240" height="36"></rect><g class="highcharts-axis highcharts-xaxis "><path fill="none" class="highcharts-axis-line" stroke="#ccd6eb" stroke-width="1" d="M 0 38.5 L 240 38.5"></path></g><g class="highcharts-axis highcharts-yaxis "><path fill="none" class="highcharts-axis-line" d="M 0 2 L 0 38"></path></g><g class="highcharts-series-group"><g class="highcharts-series highcharts-series-0 highcharts-area-series highcharts-color-0 " transform="translate(0,2) scale(1 1)" width="36" height="240" clip-path="url(#highcharts-160)"><path fill="rgb(124,181,236)" fill-opacity="0.25" d="M 2.3529411764706 30.762278244631187 L 4.2504743833017 33.30793650793651 L 6.1480075901328 34.14154995331466 L 8.0455407969639 33.88260192966075 L 9.9430740037951 30.25334578275755 L 11.840607210626 33.225272331154684 L 13.738140417457 32.46237161531279 L 15.635673624288 32.56495487083723 L 17.53320683112 31.43554310613134 L 19.430740037951 31.03815748521631 L 21.328273244782 32.14864612511671 L 23.225806451613 32.20342359165888 L 25.123339658444 31.631746031746033 L 27.020872865275 32.415561780267666 L 28.918406072106 31.64967320261438 L 30.815939278937 31.77117958294429 L 32.713472485768 31.92356053532524 L 34.6110056926 31.937503890445065 L 36.508538899431 31.674572051042638 L 38.406072106262 31.87376283846872 L 40.303605313093 31.82994086523498 L 42.201138519924 32.885652038593214 L 44.098671726755 33.598755057578586 L 45.996204933586 34.25608465608465 L 47.893738140417 34.71820728291316 L 49.791271347249 34.71820728291316 L 51.68880455408 35.06579520697168 L 53.586337760911 35.28390911920324 L 55.483870967742 35.22016806722689 L 57.381404174573 35.11061313414255 L 59.278937381404 34.985122938064116 L 61.176470588235 34.301898537192656 L 63.074003795066 34.673389355742295 L 64.971537001898 34.067849361967006 L 66.869070208729 32.68646125116713 L 68.76660341556 33.6186741363212 L 70.664136622391 33.38761282290694 L 72.561669829222 32.65857454092748 L 74.459203036053 33.58082788671024 L 76.356736242884 33.4911920323685 L 78.254269449715 32.91353874883286 L 80.151802656546 32.51017740429505 L 82.049335863378 32.67749766573296 L 83.946869070209 32.609772798008095 L 85.84440227704 31.540118269530034 L 87.741935483871 32.41755368814192 L 89.639468690702 30.57503890445067 L 91.537001897533 33.39757236227825 L 93.434535104364 34.156489262371615 L 95.332068311195 34.700280112044815 L 97.229601518027 34.700280112044815 L 99.127134724858 35.08173046996576 L 101.02466793169 35.135511982570804 L 102.92220113852 35.06479925303455 L 104.81973434535 35.02794895736072 L 106.71726755218 34.85266106442577 L 108.61480075901 34.370619358854654 L 110.51233396584 34.40746965452848 L 112.40986717268 33.28204170557112 L 114.30740037951 34.10270774976657 L 116.20493358634 33.67145969498911 L 118.10246679317 33.60373482726424 L 120 32.92349828820417 L 121.89753320683 33.177466542172425 L 123.79506641366 33.27108621226268 L 125.69259962049 33.12069716775599 L 127.59013282732 32.0958605664488 L 129.48766603416 21.358481170245874 L 131.38519924099 11.170868347338935 L 133.28273244782 1.7142857142857153 L 135.18026565465 14.59794584500467 L 137.07779886148 15.806037970743851 L 138.97533206831 25.351260504201683 L 140.87286527514 27.08621226268285 L 142.77039848197 32.009212573918454 L 144.6679316888 32.009212573918454 L 146.56546489564 33.543977591036416 L 148.46299810247 34.38157485216309 L 150.3605313093 34.570806100217865 L 152.25806451613 34.132586367880485 L 154.15559772296 33.67743541861189 L 156.05313092979 33.031061313414256 L 157.95066413662 32.599813258636786 L 159.84819734345 32.34982882041706 L 161.74573055028 32.33190164954871 L 163.64326375712 31.16364768129474 L 165.54079696395 31.688515406162466 L 167.43833017078 31.448490507314038 L 169.33586337761 31.87077497665733 L 171.23339658444 31.830936819172113 L 173.13092979127 31.87575474634298 L 175.0284629981 29.935636476812945 L 176.92599620493 21.29474011826953 L 178.82352941176 22.469965764083412 L 180.7210626186 8.5166511048864 L 182.61859582543 11.633986928104576 L 184.51612903226 23.498786181139124 L 186.41366223909 28.28036103330221 L 188.31119544592 28.782321817615937 L 190.20872865275 31.55107376283847 L 192.10626185958 31.55107376283847 L 194.00379506641 33.612698412698414 L 195.90132827324 34.448303765950826 L 197.79886148008 34.570806100217865 L 199.69639468691 34.350700280112044 L 201.59392789374 33.67743541861189 L 203.49146110057 33.153563647681295 L 205.3889943074 32.32692187986306 L 207.28652751423 31.784126984126985 L 209.18406072106 32.2562091503268 L 211.08159392789 31.255275443510737 L 212.97912713472 31.52418300653595 L 214.87666034156 31.418611889200125 L 216.77419354839 31.005291005291006 L 218.67172675522 30.488390911920323 L 220.56925996205 27.239589169000933 L 222.46679316888 29.08708372237784 L 224.36432637571 26.697790227201992 L 226.26185958254 26.700778089013383 L 228.15939278937 25.66697790227202 L 230.0569259962 25.809399315281667 L 231.95445920304 29.666728913787736 L 233.85199240987 30.789169000933708 L 235.7495256167 31.912605042016807 L 237.64705882353 32.960348583877995 L 237.64705882353 36 L 235.7495256167 36 L 233.85199240987 36 L 231.95445920304 36 L 230.0569259962 36 L 228.15939278937 36 L 226.26185958254 36 L 224.36432637571 36 L 222.46679316888 36 L 220.56925996205 36 L 218.67172675522 36 L 216.77419354839 36 L 214.87666034156 36 L 212.97912713472 36 L 211.08159392789 36 L 209.18406072106 36 L 207.28652751423 36 L 205.3889943074 36 L 203.49146110057 36 L 201.59392789374 36 L 199.69639468691 36 L 197.79886148008 36 L 195.90132827324 36 L 194.00379506641 36 L 192.10626185958 36 L 190.20872865275 36 L 188.31119544592 36 L 186.41366223909 36 L 184.51612903226 36 L 182.61859582543 36 L 180.7210626186 36 L 178.82352941176 36 L 176.92599620493 36 L 175.0284629981 36 L 173.13092979127 36 L 171.23339658444 36 L 169.33586337761 36 L 167.43833017078 36 L 165.54079696395 36 L 163.64326375712 36 L 161.74573055028 36 L 159.84819734345 36 L 157.95066413662 36 L 156.05313092979 36 L 154.15559772296 36 L 152.25806451613 36 L 150.3605313093 36 L 148.46299810247 36 L 146.56546489564 36 L 144.6679316888 36 L 142.77039848197 36 L 140.87286527514 36 L 138.97533206831 36 L 137.07779886148 36 L 135.18026565465 36 L 133.28273244782 36 L 131.38519924099 36 L 129.48766603416 36 L 127.59013282732 36 L 125.69259962049 36 L 123.79506641366 36 L 121.89753320683 36 L 120 36 L 118.10246679317 36 L 116.20493358634 36 L 114.30740037951 36 L 112.40986717268 36 L 110.51233396584 36 L 108.61480075901 36 L 106.71726755218 36 L 104.81973434535 36 L 102.92220113852 36 L 101.02466793169 36 L 99.127134724858 36 L 97.229601518027 36 L 95.332068311195 36 L 93.434535104364 36 L 91.537001897533 36 L 89.639468690702 36 L 87.741935483871 36 L 85.84440227704 36 L 83.946869070209 36 L 82.049335863378 36 L 80.151802656546 36 L 78.254269449715 36 L 76.356736242884 36 L 74.459203036053 36 L 72.561669829222 36 L 70.664136622391 36 L 68.76660341556 36 L 66.869070208729 36 L 64.971537001898 36 L 63.074003795066 36 L 61.176470588235 36 L 59.278937381404 36 L 57.381404174573 36 L 55.483870967742 36 L 53.586337760911 36 L 51.68880455408 36 L 49.791271347249 36 L 47.893738140417 36 L 45.996204933586 36 L 44.098671726755 36 L 42.201138519924 36 L 40.303605313093 36 L 38.406072106262 36 L 36.508538899431 36 L 34.6110056926 36 L 32.713472485768 36 L 30.815939278937 36 L 28.918406072106 36 L 27.020872865275 36 L 25.123339658444 36 L 23.225806451613 36 L 21.328273244782 36 L 19.430740037951 36 L 17.53320683112 36 L 15.635673624288 36 L 13.738140417457 36 L 11.840607210626 36 L 9.9430740037951 36 L 8.0455407969639 36 L 6.1480075901328 36 L 4.2504743833017 36 L 2.3529411764706 36" class="highcharts-area"></path><path fill="none" d="M 2.3529411764706 30.762278244631187 L 4.2504743833017 33.30793650793651 L 6.1480075901328 34.14154995331466 L 8.0455407969639 33.88260192966075 L 9.9430740037951 30.25334578275755 L 11.840607210626 33.225272331154684 L 13.738140417457 32.46237161531279 L 15.635673624288 32.56495487083723 L 17.53320683112 31.43554310613134 L 19.430740037951 31.03815748521631 L 21.328273244782 32.14864612511671 L 23.225806451613 32.20342359165888 L 25.123339658444 31.631746031746033 L 27.020872865275 32.415561780267666 L 28.918406072106 31.64967320261438 L 30.815939278937 31.77117958294429 L 32.713472485768 31.92356053532524 L 34.6110056926 31.937503890445065 L 36.508538899431 31.674572051042638 L 38.406072106262 31.87376283846872 L 40.303605313093 31.82994086523498 L 42.201138519924 32.885652038593214 L 44.098671726755 33.598755057578586 L 45.996204933586 34.25608465608465 L 47.893738140417 34.71820728291316 L 49.791271347249 34.71820728291316 L 51.68880455408 35.06579520697168 L 53.586337760911 35.28390911920324 L 55.483870967742 35.22016806722689 L 57.381404174573 35.11061313414255 L 59.278937381404 34.985122938064116 L 61.176470588235 34.301898537192656 L 63.074003795066 34.673389355742295 L 64.971537001898 34.067849361967006 L 66.869070208729 32.68646125116713 L 68.76660341556 33.6186741363212 L 70.664136622391 33.38761282290694 L 72.561669829222 32.65857454092748 L 74.459203036053 33.58082788671024 L 76.356736242884 33.4911920323685 L 78.254269449715 32.91353874883286 L 80.151802656546 32.51017740429505 L 82.049335863378 32.67749766573296 L 83.946869070209 32.609772798008095 L 85.84440227704 31.540118269530034 L 87.741935483871 32.41755368814192 L 89.639468690702 30.57503890445067 L 91.537001897533 33.39757236227825 L 93.434535104364 34.156489262371615 L 95.332068311195 34.700280112044815 L 97.229601518027 34.700280112044815 L 99.127134724858 35.08173046996576 L 101.02466793169 35.135511982570804 L 102.92220113852 35.06479925303455 L 104.81973434535 35.02794895736072 L 106.71726755218 34.85266106442577 L 108.61480075901 34.370619358854654 L 110.51233396584 34.40746965452848 L 112.40986717268 33.28204170557112 L 114.30740037951 34.10270774976657 L 116.20493358634 33.67145969498911 L 118.10246679317 33.60373482726424 L 120 32.92349828820417 L 121.89753320683 33.177466542172425 L 123.79506641366 33.27108621226268 L 125.69259962049 33.12069716775599 L 127.59013282732 32.0958605664488 L 129.48766603416 21.358481170245874 L 131.38519924099 11.170868347338935 L 133.28273244782 1.7142857142857153 L 135.18026565465 14.59794584500467 L 137.07779886148 15.806037970743851 L 138.97533206831 25.351260504201683 L 140.87286527514 27.08621226268285 L 142.77039848197 32.009212573918454 L 144.6679316888 32.009212573918454 L 146.56546489564 33.543977591036416 L 148.46299810247 34.38157485216309 L 150.3605313093 34.570806100217865 L 152.25806451613 34.132586367880485 L 154.15559772296 33.67743541861189 L 156.05313092979 33.031061313414256 L 157.95066413662 32.599813258636786 L 159.84819734345 32.34982882041706 L 161.74573055028 32.33190164954871 L 163.64326375712 31.16364768129474 L 165.54079696395 31.688515406162466 L 167.43833017078 31.448490507314038 L 169.33586337761 31.87077497665733 L 171.23339658444 31.830936819172113 L 173.13092979127 31.87575474634298 L 175.0284629981 29.935636476812945 L 176.92599620493 21.29474011826953 L 178.82352941176 22.469965764083412 L 180.7210626186 8.5166511048864 L 182.61859582543 11.633986928104576 L 184.51612903226 23.498786181139124 L 186.41366223909 28.28036103330221 L 188.31119544592 28.782321817615937 L 190.20872865275 31.55107376283847 L 192.10626185958 31.55107376283847 L 194.00379506641 33.612698412698414 L 195.90132827324 34.448303765950826 L 197.79886148008 34.570806100217865 L 199.69639468691 34.350700280112044 L 201.59392789374 33.67743541861189 L 203.49146110057 33.153563647681295 L 205.3889943074 32.32692187986306 L 207.28652751423 31.784126984126985 L 209.18406072106 32.2562091503268 L 211.08159392789 31.255275443510737 L 212.97912713472 31.52418300653595 L 214.87666034156 31.418611889200125 L 216.77419354839 31.005291005291006 L 218.67172675522 30.488390911920323 L 220.56925996205 27.239589169000933 L 222.46679316888 29.08708372237784 L 224.36432637571 26.697790227201992 L 226.26185958254 26.700778089013383 L 228.15939278937 25.66697790227202 L 230.0569259962 25.809399315281667 L 231.95445920304 29.666728913787736 L 233.85199240987 30.789169000933708 L 235.7495256167 31.912605042016807 L 237.64705882353 32.960348583877995" class="highcharts-graph" stroke="#7cb5ec" stroke-width="1" stroke-linejoin="round" stroke-linecap="round"></path></g><g class="highcharts-markers highcharts-series-0 highcharts-area-series highcharts-color-0 " transform="translate(0,2) scale(1 1)" width="36" height="240" clip-path="none"></g></g><g class="highcharts-axis-labels highcharts-xaxis-labels "></g><g class="highcharts-axis-labels highcharts-yaxis-labels "></g></svg>